<svg width="30" height="30" viewBox="0 0 30 30" xmlns="http://www.w3.org/2000/svg">
<g clip-path="url(#clip0)">
<path d="M17.7167 0.165771C14.5751 0.165771 11.7058 1.35171 9.53125 3.29869C10.0136 4.06564 10.2876 4.95794 10.3133 5.879L10.3134 5.88168L10.3135 5.88437C10.3245 6.29939 10.3493 6.71452 10.3848 7.12901C12.0342 4.86263 14.7055 3.38552 17.7167 3.38552C22.7149 3.38552 26.7812 7.45185 26.7812 12.4501C26.7812 17.3956 22.7997 21.4261 17.8739 21.5107C18.3237 21.8865 18.7881 22.2448 19.2666 22.5811L19.2687 22.5827L19.271 22.5842C19.9224 23.0438 20.4531 23.6463 20.8254 24.3355C26.0986 22.9551 30.0009 18.15 30.0009 12.4501C30.001 5.67648 24.4904 0.165771 17.7167 0.165771Z"/>
<path d="M17.4142 25.215C16.0108 24.0948 15.1353 23.3488 13.8822 22.1881C13.5136 21.8465 13.063 21.6338 12.6003 21.6338C12.2463 21.6338 11.8966 21.7466 11.6088 21.9828C11.3117 22.2329 11.0146 22.483 10.7174 22.7329C8.30273 19.8633 6.50965 16.5194 5.45562 12.9201C5.82825 12.8111 6.20099 12.7019 6.57362 12.5929C7.39487 12.3414 7.78124 11.4647 7.66071 10.5858C7.39852 8.67284 7.2561 7.72247 7.09382 5.96889C7.01065 5.07005 6.41242 4.28926 5.555 4.24257C5.42127 4.22958 5.28765 4.22314 5.15511 4.22314C1.96648 4.22314 -0.8098 7.91899 0.217193 12.4404C1.49511 18.0397 4.26163 23.1989 8.21837 27.3619C9.8392 29.0636 11.8248 29.8342 13.6181 29.8342C15.5099 29.8342 17.1878 28.9773 18.0005 27.4521C18.4361 26.7121 18.1197 25.7783 17.4142 25.215Z"/>
<path d="M14.02 12.6772C13.1708 13.4651 12.6152 14.0845 12.3218 14.5707C12.1146 14.9136 11.9635 15.2762 11.8724 15.6483C11.8296 15.8234 11.8689 16.0052 11.9805 16.1472C12.0919 16.289 12.2591 16.3703 12.4394 16.3703H16.4918C16.9882 16.3703 17.3922 15.9664 17.3922 15.4699C17.3922 14.9734 16.9882 14.5694 16.4918 14.5694H14.6618C14.6767 14.5518 14.692 14.5342 14.7077 14.5165C14.8273 14.3819 15.12 14.1007 15.5778 13.681C16.0578 13.2404 16.382 12.9105 16.5686 12.6724C16.8499 12.3143 17.0592 11.9648 17.1905 11.6336C17.3243 11.296 17.3922 10.9362 17.3922 10.5639C17.3922 9.89586 17.1503 9.32886 16.6733 8.87831C16.1993 8.43141 15.5469 8.20496 14.7338 8.20496C13.995 8.20496 13.3674 8.39836 12.8688 8.77979C12.568 9.01011 12.3363 9.32919 12.1803 9.72843C12.0749 9.99814 12.1022 10.3067 12.2533 10.5537C12.4044 10.8007 12.6667 10.9655 12.9549 10.9942C12.987 10.9974 13.0189 10.9991 13.0505 10.9991C13.4561 10.9991 13.8178 10.7412 13.9506 10.3574C13.9923 10.237 14.0473 10.1414 14.1145 10.0729C14.256 9.92881 14.4465 9.85862 14.6971 9.85862C14.9518 9.85862 15.142 9.92495 15.2786 10.0614C15.4148 10.1976 15.481 10.3962 15.481 10.6688C15.481 10.922 15.3905 11.186 15.2121 11.4538C15.1165 11.594 14.8307 11.9218 14.02 12.6772Z"/>
<path d="M22.1358 8.20496H21.4589C21.266 8.20496 21.0859 8.30005 20.9771 8.45932L17.8467 13.0419C17.7553 13.1756 17.707 13.332 17.707 13.4939V14.2365C17.707 14.5582 17.9688 14.8199 18.2905 14.8199H20.8603V15.441C20.8603 15.9535 21.2773 16.3705 21.7898 16.3705C22.3023 16.3705 22.7192 15.9535 22.7192 15.441V14.8199H22.812C23.2882 14.8199 23.6757 14.4325 23.6757 13.9563C23.6757 13.4801 23.2882 13.0926 22.812 13.0926H22.7192V8.78838C22.7192 8.46672 22.4574 8.20496 22.1358 8.20496ZM20.8605 13.0926H19.7069L20.8605 11.3778V13.0926Z"/>
</g>
<defs>
<clipPath id="clip0">
<rect width="30" height="30" fill="white"/>
</clipPath>
</defs>
</svg>
