<svg width="15" height="15" viewBox="0 0 15 15" fill="none" xmlns="http://www.w3.org/2000/svg">
<path d="M8.0853 11.6669L14.7604 4.99166C14.9149 4.83727 15 4.63118 15 4.41142C15 4.19167 14.9149 3.98557 14.7604 3.83118L14.2689 3.3396C13.9487 3.01973 13.4282 3.01973 13.1084 3.3396L7.50311 8.94492L1.89157 3.33338C1.73706 3.17899 1.53108 3.09375 1.31145 3.09375C1.09158 3.09375 0.885602 3.17899 0.730968 3.33338L0.239632 3.82496C0.0851202 3.97947 0 4.18545 0 4.4052C0 4.62496 0.0851202 4.83105 0.239632 4.98544L6.9208 11.6669C7.0758 11.8216 7.28275 11.9066 7.50274 11.9061C7.7236 11.9066 7.93042 11.8216 8.0853 11.6669Z" fill="white"/>
</svg>
