<svg width="20" height="20" viewBox="0 0 20 20" fill="none" xmlns="http://www.w3.org/2000/svg">
<path d="M16.6667 3.53133V1.66667C16.6655 0.746667 15.92 0.00116667 15 0H1.66667C0.746667 0.00116667 0.00116667 0.746667 0 1.66667V9C0.00258334 9.85125 0.647833 10.5632 1.49467 10.6495L2.74767 13.9021C3.07867 14.7609 4.04317 15.1888 4.90208 14.8582L12.7267 11.844C12.186 13.2562 12.3398 14.8405 13.1418 16.1224L13.3333 16.4287V19.6667C13.3333 19.8508 13.4825 20 13.6667 20H19.6667C19.8508 20 20 19.8508 20 19.6667V8.66375C19.9968 7.511 19.5379 6.4065 18.7229 5.59125L16.6667 3.53133ZM16.6667 5.52483L17.6783 8.151C17.8766 8.6665 17.6197 9.24492 17.1042 9.44333L16.526 9.66667C16.6183 9.4565 16.6662 9.22933 16.6667 9V5.52483ZM0.666667 9V1.66667C0.666667 1.1145 1.1145 0.666667 1.66667 0.666667H15C15.5522 0.666667 16 1.1145 16 1.66667V3.78533H15.9971L16 3.79292V9C15.9974 9.05817 15.9898 9.11583 15.9773 9.17267L12.924 6.119C12.2377 5.4485 11.1435 5.44333 10.451 6.10683C9.75833 6.77075 9.71675 7.86408 10.3573 8.57825L11.659 10H1.66667C1.1145 10 0.666667 9.55217 0.666667 9ZM4.937 10.6667L2.56667 11.5793L2.216 10.6667H4.937ZM4.66233 14.2359C4.147 14.4346 3.56825 14.1777 3.36967 13.6623L2.80733 12.2L6.78633 10.6667V10.6647H12.27L12.7032 11.137L4.66233 14.2359ZM19.3333 19.3333H14V16.6667H19.3333V19.3333ZM19.3333 16H13.8517L13.7071 15.769C12.8943 14.4702 12.862 12.8297 13.6227 11.5C13.6947 11.3742 13.677 11.2162 13.579 11.1093L10.8474 8.12933C10.4401 7.6835 10.463 6.99425 10.8991 6.57667C11.3353 6.159 12.0249 6.16583 12.4526 6.59183L17.7643 11.9023L18.2357 11.431L17.0023 10.1977L17.3443 10.0643C18.2025 9.73325 18.6302 8.76958 18.3 7.91092L17.1717 4.98125L18.2516 6.06333C18.9416 6.75317 19.3307 7.688 19.3333 8.66375V16Z" fill="white"/>
<path d="M3.7987 4.66634C4.27736 4.66634 4.66537 4.27834 4.66537 3.79967V2.19967C4.66537 1.72101 4.27736 1.33301 3.7987 1.33301H2.1987C1.72003 1.33301 1.33203 1.72101 1.33203 2.19967V3.79967C1.33203 4.27834 1.72003 4.66634 2.1987 4.66634H3.7987ZM1.9987 3.79967V3.33301H2.66536V2.66634H1.9987V2.19967C1.9987 2.08926 2.08828 1.99967 2.1987 1.99967H3.7987C3.90912 1.99967 3.9987 2.08926 3.9987 2.19967V2.66634H3.33203V3.33301H3.9987V3.79967C3.9987 3.91009 3.90912 3.99967 3.7987 3.99967H2.1987C2.08828 3.99967 1.9987 3.91009 1.9987 3.79967Z" fill="white"/>
<path d="M1.66797 5.66699H3.0013V6.33366H1.66797V5.66699Z" fill="white"/>
<path d="M1.66797 7.66699H3.0013V8.33366H1.66797V7.66699Z" fill="white"/>
<path d="M7.66797 7.66699H9.0013V8.33366H7.66797V7.66699Z" fill="white"/>
<path d="M3.66797 5.66699H5.0013V6.33366H3.66797V5.66699Z" fill="white"/>
<path d="M5.66797 5.66699H7.0013V6.33366H5.66797V5.66699Z" fill="white"/>
<path d="M7.66797 5.66699H9.0013V6.33366H7.66797V5.66699Z" fill="white"/>
<path d="M14 1.66699H14.6667V2.66699H14V1.66699Z" fill="white"/>
<path d="M12.668 1.66699H13.3346V2.66699H12.668V1.66699Z" fill="white"/>
<path d="M11.332 1.66699H11.9987V2.66699H11.332V1.66699Z" fill="white"/>
<path d="M10 1.66699H10.6667V2.66699H10V1.66699Z" fill="white"/>
<path d="M14.668 17.333H15.3346V17.9997H14.668V17.333Z" fill="white"/>
</svg>
