<svg width="60" height="60" viewBox="0 0 60 60" fill="none" xmlns="http://www.w3.org/2000/svg">
<path d="M29.9989 0.000976562C13.4314 0.000976562 0 13.4328 0 30.0009C0 46.5686 13.4314 60.0008 29.9989 60.0008C46.5676 60.0008 60 46.5684 60 30.0009C60 13.4328 46.5676 0.000976562 29.9989 0.000976562ZM42.1901 43.4279V45.5027C42.1901 46.6486 41.2611 47.5776 40.1153 47.5776H38.0404H26.589H19.3661C17.0745 47.5776 15.2163 45.7195 15.2163 43.4277V17.3195C15.2163 15.0278 17.0743 13.1696 19.3661 13.1696H26.5888H38.0402H40.1151C41.2609 13.1696 42.1899 14.0986 42.1899 15.2444V17.3195H42.1901V43.4279ZM46.3398 17.3195V43.4279V45.5027C46.3398 46.6486 45.4108 47.5776 44.2649 47.5776H43.7037C44.0585 46.9666 44.2649 46.2589 44.2649 45.5027V43.4279V17.3195V15.2448C44.2649 14.4886 44.0585 13.781 43.7037 13.17H44.2649C45.4108 13.17 46.3398 14.099 46.3398 15.2448V17.3195Z" fill="white" fill-opacity="0.2"/>
<path d="M35.1205 33.1054C35.1205 33.1054 34.3387 32.167 33.4731 32.8144C32.8278 33.2968 31.6684 34.3696 31.3898 34.63C31.3898 34.63 29.4518 33.5968 28.305 32.6532C26.6061 31.2562 25.4701 29.5315 24.8747 28.5505L24.4301 27.7123C24.5851 27.5453 25.7721 26.2745 26.2855 25.5845C26.9319 24.7193 25.9951 23.9374 25.9951 23.9374C25.9951 23.9374 23.3585 21.3008 22.7583 20.7778C22.1577 20.2534 21.4661 20.5444 21.4661 20.5444C20.203 21.3608 18.8942 22.07 18.8164 25.4817C18.8138 28.6755 21.2383 31.9694 23.8595 34.5194C26.4857 37.3999 30.092 40.2861 33.5773 40.2829C36.9883 40.2061 37.6969 38.8969 38.5129 37.6339C38.5129 37.6339 38.8049 36.9429 38.2811 36.3422C37.7571 35.7406 35.1205 33.1054 35.1205 33.1054Z" fill="white" fill-opacity="0.2"/>
</svg>
