<svg width="30" height="20" viewBox="0 0 30 20" fill="none" xmlns="http://www.w3.org/2000/svg">
<path opacity="0.5" d="M15.0376 11.9945H15.0441C15.2703 11.9945 15.4939 11.929 15.6748 11.8099L15.7238 11.7785C15.7345 11.7715 15.7457 11.7652 15.7569 11.7578L16.3284 11.2864L29.9685 0.0654326C29.9403 0.0265834 29.8922 0 29.841 0H0.15848C0.121667 0 0.0875 0.013292 0.0602941 0.0356242L14.3311 11.7614C14.511 11.9099 14.7676 11.9945 15.0376 11.9945ZM0 1.58998V18.2228L10.223 9.99015L0 1.58998ZM19.7876 10.046L30 18.2271V1.6453L19.7876 10.046ZM16.5407 12.7163C16.1336 13.0493 15.6011 13.2328 15.0419 13.2328C14.4806 13.2328 13.9486 13.0503 13.5425 12.7189L11.2011 10.7939L0 19.8128V19.8415C0 19.9271 0.0736275 20 0.160588 20H29.8415C29.9269 20 30 19.9271 30 19.8409V19.8144L18.8085 10.8503L16.5407 12.7163Z" fill="#1E3139"/>
</svg>
