<svg width="40" height="40" viewBox="0 0 40 40" xmlns="http://www.w3.org/2000/svg">
<circle cx="20" cy="20" r="20"/>
<path d="M17.3494 13.8733C17.3494 14.3774 17.3494 16.6269 17.3494 16.6269H15.332V19.994H17.3494V29.9999H21.4935V19.9943H24.2744C24.2744 19.9943 24.5349 18.3798 24.6611 16.6145C24.2992 16.6145 21.5092 16.6145 21.5092 16.6145C21.5092 16.6145 21.5092 14.6556 21.5092 14.3123C21.5092 13.9682 21.961 13.5054 22.4076 13.5054C22.8533 13.5054 23.7941 13.5054 24.6655 13.5054C24.6655 13.0469 24.6655 11.4629 24.6655 10C23.5022 10 22.1789 10 21.5955 10C17.247 9.99977 17.3494 13.3702 17.3494 13.8733Z" fill="white"/>
</svg>
