<svg width="10" height="20" viewBox="0 0 10 20" xmlns="http://www.w3.org/2000/svg">
<path d="M2.35136 3.87335C2.35136 4.37735 2.35136 6.62694 2.35136 6.62694H0.333984V9.99405H2.35136V19.9999H6.49547V9.99433H9.27637C9.27637 9.99433 9.53681 8.37983 9.66305 6.61453C9.3011 6.61453 6.51114 6.61453 6.51114 6.61453C6.51114 6.61453 6.51114 4.65565 6.51114 4.3123C6.51114 3.9682 6.96298 3.50535 7.40956 3.50535C7.8553 3.50535 8.79607 3.50535 9.66743 3.50535C9.66743 3.04691 9.66743 1.46291 9.66743 1.20278e-08C8.5042 1.20278e-08 7.18083 1.20278e-08 6.59749 1.20278e-08C2.24892 -0.000232484 2.35136 3.37022 2.35136 3.87335Z"/>
</svg>
