<svg width="60" height="60" viewBox="0 0 60 60" fill="none" xmlns="http://www.w3.org/2000/svg">
<path d="M59.9985 40.6053C59.9985 33.1598 55.7271 26.5149 49.3298 23.2826C49.1312 37.5584 37.5571 49.1325 23.2812 49.3312C26.5135 55.7284 33.1584 59.9998 40.6039 59.9998C44.0948 59.9998 47.4896 59.0701 50.4724 57.3036L59.9138 59.9151L57.3022 50.4738C59.0688 47.491 59.9985 44.0962 59.9985 40.6053Z" fill="white" fill-opacity="0.2"/>
<path d="M45.8203 22.9102C45.8203 10.2773 35.5431 0 22.9102 0C10.2773 0 0 10.2773 0 22.9102C0 27.0273 1.09589 31.0359 3.17688 34.5552L0.0842285 45.7356L11.2651 42.6434C14.7844 44.7244 18.793 45.8203 22.9102 45.8203C35.5431 45.8203 45.8203 35.5431 45.8203 22.9102ZM19.3945 17.5781H15.8789C15.8789 13.7009 19.0329 10.5469 22.9102 10.5469C26.7874 10.5469 29.9414 13.7009 29.9414 17.5781C29.9414 19.5461 29.1083 21.4375 27.6549 22.7669L24.668 25.5006V28.2422H21.1523V23.9525L25.2814 20.1732C26.0193 19.498 26.4258 18.5765 26.4258 17.5781C26.4258 15.6395 24.8488 14.0625 22.9102 14.0625C20.9715 14.0625 19.3945 15.6395 19.3945 17.5781ZM21.1523 31.7578H24.668V35.2734H21.1523V31.7578Z" fill="white" fill-opacity="0.2"/>
</svg>
