<svg width="76" height="74" viewBox="0 0 76 74" fill="none" xmlns="http://www.w3.org/2000/svg">
<path d="M37.8277 20.4014C39.5555 20.4014 40.9562 18.6436 40.9562 16.4753C40.9562 14.307 39.5555 12.5492 37.8277 12.5492C36.0999 12.5492 34.6992 14.307 34.6992 16.4753C34.6992 18.6436 36.0999 20.4014 37.8277 20.4014Z" fill="#3FA9F5"/>
<path d="M37.8277 60.1661C39.5555 60.1661 40.9562 58.4083 40.9562 56.24C40.9562 54.0716 39.5555 52.3138 37.8277 52.3138C36.0999 52.3138 34.6992 54.0716 34.6992 56.24C34.6992 58.4083 36.0999 60.1661 37.8277 60.1661Z" fill="#3FA9F5"/>
<path d="M57.9692 39.4461C60.1656 39.4461 61.9462 38.0634 61.9462 36.3576C61.9462 34.6519 60.1656 33.2692 57.9692 33.2692C55.7727 33.2692 53.9922 34.6519 53.9922 36.3576C53.9922 38.0634 55.7727 39.4461 57.9692 39.4461Z" fill="#3FA9F5"/>
<path d="M17.6879 39.4461C19.8844 39.4461 21.6649 38.0634 21.6649 36.3576C21.6649 34.6519 19.8844 33.2692 17.6879 33.2692C15.4915 33.2692 13.7109 34.6519 13.7109 36.3576C13.7109 38.0634 15.4915 39.4461 17.6879 39.4461Z" fill="#3FA9F5"/>
<path opacity="0.13" d="M36.3697 9.30143L36.5519 8.98282C36.6715 8.7779 36.8437 8.6077 37.0512 8.48936C37.2586 8.37103 37.494 8.30872 37.7335 8.30872C37.9731 8.30872 38.2085 8.37103 38.4159 8.48936C38.6234 8.6077 38.7956 8.7779 38.9152 8.98282L39.087 9.27574C45.2576 9.50249 51.1794 11.7354 55.9319 15.6274L60.3826 10.6067C53.9763 5.30731 45.8542 2.45723 37.4971 2.57608C29.14 2.69494 21.1044 5.77482 14.8555 11.2542L19.2281 16.3468C23.9639 12.142 30.0104 9.65681 36.3697 9.30143Z" fill="#3FA9F5"/>
<path opacity="0.13" d="M9.88924 36.9998C9.87814 31.0824 11.7923 25.3179 15.3498 20.5554L9.98814 16.4751C5.48352 22.4714 3.07508 29.7506 3.12578 37.2158C3.17649 44.6809 5.68357 51.9276 10.2692 57.8637L15.5736 53.7166C11.8793 48.9073 9.88265 43.0356 9.88924 36.9998Z" fill="#3FA9F5"/>
<path opacity="0.13" d="M39.6353 63.9946L39.4531 64.3081C39.3342 64.5131 39.1625 64.6835 38.9555 64.802C38.7484 64.9205 38.5134 64.9829 38.274 64.9829C38.0347 64.9829 37.7996 64.9205 37.5926 64.802C37.3856 64.6835 37.2139 64.5131 37.095 64.3081L36.9232 64.0152C30.7522 63.7907 24.8296 61.5575 20.0783 57.6635L15.6172 62.6945C22.0255 67.991 30.1474 70.8395 38.5042 70.7216C46.861 70.6037 54.8971 67.5272 61.1495 62.0521L56.7769 56.9543C52.039 61.1552 45.9933 63.6382 39.6353 63.9946Z" fill="#3FA9F5"/>
<path opacity="0.13" d="M66.1089 36.2908C66.12 42.2082 64.2058 47.9727 60.6483 52.7352L66.01 56.8155C70.5178 50.8189 72.9286 43.5379 72.8789 36.0706C72.8291 28.6032 70.3215 21.3542 65.7341 15.4166L60.4297 19.5637C64.1237 24.3768 66.1185 30.2522 66.1089 36.2908Z" fill="#3FA9F5"/>
<path d="M37.9834 57.2216C49.4945 57.2216 58.8261 48.0093 58.8261 36.6454C58.8261 25.2816 49.4945 16.0693 37.9834 16.0693C26.4722 16.0693 17.1406 25.2816 17.1406 36.6454C17.1406 48.0093 26.4722 57.2216 37.9834 57.2216Z" fill="#3FA9F5"/>
<path d="M37.9855 53.2902C47.2974 53.2902 54.8461 45.838 54.8461 36.6453C54.8461 27.4526 47.2974 20.0005 37.9855 20.0005C28.6737 20.0005 21.125 27.4526 21.125 36.6453C21.125 45.838 28.6737 53.2902 37.9855 53.2902Z" stroke="white" stroke-miterlimit="10"/>
<path d="M37.9853 39.6465C39.6643 39.6465 41.0253 38.3029 41.0253 36.6454C41.0253 34.9879 39.6643 33.6443 37.9853 33.6443C36.3064 33.6443 34.9453 34.9879 34.9453 36.6454C34.9453 38.3029 36.3064 39.6465 37.9853 39.6465Z" stroke="white" stroke-miterlimit="10"/>
<path d="M28.3789 22.8628L47.1134 50.6025" stroke="white" stroke-miterlimit="10"/>
<path d="M41.0602 20.386L34.4336 53.0796" stroke="white" stroke-miterlimit="10"/>
<path d="M51.7997 27.4879L23.6953 45.9828" stroke="white" stroke-miterlimit="10"/>
<path d="M54.3087 40.0011L21.1914 33.4645" stroke="white" stroke-miterlimit="10"/>
<path d="M37.9861 54.5902C48.0253 54.5902 56.1637 46.5559 56.1637 36.6452C56.1637 26.7344 48.0253 18.7002 37.9861 18.7002C27.947 18.7002 19.8086 26.7344 19.8086 36.6452C19.8086 46.5559 27.947 54.5902 37.9861 54.5902Z" stroke="white" stroke-miterlimit="10"/>
<path d="M54.5467 38.4288L20.9453 35.0371" stroke="white" stroke-miterlimit="10"/>
<path d="M50.8463 26.2084L24.6523 47.2573" stroke="white" stroke-miterlimit="10"/>
<path d="M39.3082 20.1343L36.1953 53.3315" stroke="white" stroke-miterlimit="10"/>
<path d="M26.7617 24.0757L48.7341 49.395" stroke="white" stroke-miterlimit="10"/>
<path d="M37.9848 40.5716C40.1812 40.5716 41.9618 38.8138 41.9618 36.6455C41.9618 34.4771 40.1812 32.7194 37.9848 32.7194C35.7884 32.7194 34.0078 34.4771 34.0078 36.6455C34.0078 38.8138 35.7884 40.5716 37.9848 40.5716Z" fill="#3FA9F5" stroke="white" stroke-miterlimit="10"/>
</svg>
