<svg width="50" height="50" viewBox="0 0 50 50" fill="none" xmlns="http://www.w3.org/2000/svg">
<circle cx="25" cy="25" r="25" fill="#1E3139"/>
<path d="M11.2024 39.9996H38.7975C39.1661 39.9996 39.5098 39.8401 39.7404 39.5622C39.9408 39.3211 40.0294 39.0153 39.9914 38.7012C39.3443 33.3566 36.2444 28.9029 32.0006 26.5283C30.2069 28.4299 27.7307 29.6077 25 29.6077C22.2694 29.6077 19.7931 28.4299 17.9995 26.5283C13.7556 28.9022 10.6551 33.3566 10.0086 38.7012C9.97053 39.0153 10.0598 39.3218 10.2596 39.5622C10.4902 39.8401 10.8339 39.9996 11.2024 39.9996Z" fill="white"/>
<path d="M18.7826 25.3734C18.9436 25.5525 19.1118 25.723 19.2859 25.8881C20.8062 27.33 22.8055 28.2145 25.0007 28.2145C27.1958 28.2145 29.1951 27.3292 30.7155 25.8881C30.8896 25.723 31.0578 25.5523 31.2187 25.3734C31.379 25.1944 31.5355 25.0113 31.6826 24.819C32.8738 23.2553 33.5912 21.2695 33.5912 19.1074C33.5912 14.0852 29.737 10 25.0006 10C20.2641 10 16.4102 14.0859 16.4102 19.1073C16.4102 21.2694 17.1276 23.2553 18.3188 24.8189C18.4653 25.0113 18.6216 25.1938 18.7826 25.3734Z" fill="white"/>
</svg>
