<svg width="75" height="74" viewBox="0 0 75 74" fill="none" xmlns="http://www.w3.org/2000/svg">
<path d="M37.2468 23.4742L29.156 37.5907C28.2822 39.1153 27.8242 40.8429 27.8281 42.6003C27.8321 44.3577 28.2977 46.0832 29.1783 47.6038C30.0589 49.1245 31.3236 50.3869 32.8457 51.2644C34.3677 52.142 36.0936 52.6039 37.8504 52.6039C39.6071 52.6039 41.333 52.142 42.8551 51.2644C44.3771 50.3869 45.6419 49.1245 46.5225 47.6038C47.4031 46.0832 47.8687 44.3577 47.8726 42.6003C47.8765 40.8429 47.4186 39.1153 46.5447 37.5907L38.454 23.4742C38.3935 23.3673 38.3058 23.2784 38.1998 23.2165C38.0937 23.1547 37.9731 23.1221 37.8504 23.1221C37.7276 23.1221 37.6071 23.1547 37.501 23.2165C37.395 23.2784 37.3072 23.3673 37.2468 23.4742Z" fill="#3FA9F5"/>
<path opacity="0.53" d="M38.0129 15.4167C33.7457 15.4167 29.5743 16.6826 26.0262 19.0542C22.4782 21.4258 19.7128 24.7967 18.0798 28.7405C16.4468 32.6843 16.0196 37.024 16.8521 41.2108C17.6846 45.3975 19.7394 49.2433 22.7568 52.2618C25.7741 55.2803 29.6185 57.3359 33.8037 58.1687C37.9889 59.0015 42.327 58.5741 46.2694 56.9405C50.2118 55.3069 53.5814 52.5405 55.9521 48.9911C58.3228 45.4418 59.5882 41.2689 59.5882 37.0001C59.5882 31.2758 57.3151 25.786 53.2689 21.7384C49.2228 17.6907 43.735 15.4167 38.0129 15.4167ZM43.8793 53.054C41.5684 54.3874 38.8823 54.9207 36.2375 54.5712C33.5928 54.2217 31.1372 53.0089 29.2517 51.121C27.3662 49.233 26.1562 46.7754 25.8093 44.1294C25.4624 41.4833 25.998 38.7967 27.3331 36.4862L37.119 19.4354C37.193 19.3073 37.2993 19.201 37.4274 19.1271C37.5554 19.0531 37.7006 19.0142 37.8485 19.0142C37.9963 19.0142 38.1415 19.0531 38.2696 19.1271C38.3976 19.201 38.504 19.3073 38.5779 19.4354L48.3639 36.4862C49.1588 37.8681 49.6734 39.3934 49.8782 40.9746C50.083 42.5557 49.974 44.1618 49.5574 45.7008C49.1408 47.2398 48.4249 48.6814 47.4505 49.9432C46.4762 51.205 45.2626 52.2621 43.8793 53.054Z" fill="#3FA9F5"/>
<path opacity="0.13" d="M36.4069 9.30119L36.5867 8.98257C36.7048 8.77765 36.8747 8.60746 37.0794 8.48912C37.2842 8.37078 37.5164 8.30848 37.7528 8.30848C37.9893 8.30848 38.2215 8.37078 38.4262 8.48912C38.6309 8.60746 38.8009 8.77765 38.9189 8.98257L39.0885 9.27549C45.1778 9.50225 51.0218 11.7352 55.7117 15.6272L60.1039 10.6065C53.7819 5.30706 45.7667 2.45698 37.5195 2.57584C29.2723 2.6947 21.3425 5.77458 15.1758 11.254L19.4908 16.3466C24.1644 12.1417 30.1313 9.65656 36.4069 9.30119Z" fill="#3FA9F5"/>
<path opacity="0.13" d="M10.2729 36.9998C10.2619 31.0824 12.1509 25.3179 15.6616 20.5554L10.3705 16.4751C5.92514 22.4714 3.5484 29.7506 3.59843 37.2158C3.64846 44.6809 6.12256 51.9276 10.6479 57.8637L15.8825 53.7166C12.2367 48.9073 10.2664 43.0356 10.2729 36.9998Z" fill="#3FA9F5"/>
<path opacity="0.13" d="M39.6278 63.9944L39.448 64.3078C39.3307 64.5129 39.1613 64.6833 38.957 64.8017C38.7527 64.9202 38.5207 64.9826 38.2845 64.9826C38.0483 64.9826 37.8164 64.9202 37.6121 64.8017C37.4077 64.6833 37.2383 64.5129 37.121 64.3078L36.9515 64.0149C30.8616 63.7905 25.017 61.5573 20.3282 57.6633L15.9258 62.6942C22.2498 67.9907 30.2648 70.8393 38.5117 70.7214C46.7585 70.6035 54.6889 67.527 60.859 62.0519L56.5439 56.9541C51.8684 61.155 45.9023 63.638 39.6278 63.9944Z" fill="#3FA9F5"/>
<path opacity="0.13" d="M65.7529 36.2909C65.7638 42.2083 63.8749 47.9728 60.3642 52.7354L65.6553 56.8156C70.1038 50.819 72.4829 43.5381 72.4338 36.0707C72.3847 28.6033 69.91 21.3543 65.383 15.4167L60.1484 19.5638C63.7938 24.377 65.7624 30.2523 65.7529 36.2909Z" fill="#3FA9F5"/>
</svg>
