<svg width="30" height="30" viewBox="0 0 30 30" xmlns="http://www.w3.org/2000/svg">
<path d="M18.1037 6.70973C19.4908 7.57945 20.4635 9.05118 20.6406 10.7595C21.2063 11.0238 21.8341 11.1759 22.4998 11.1759C24.93 11.1759 26.8997 9.20618 26.8997 6.77638C26.8997 4.3462 24.93 2.37653 22.4998 2.37653C20.0928 2.37727 18.1404 4.31176 18.1037 6.70973ZM15.2213 15.7183C17.6514 15.7183 19.6211 13.7483 19.6211 11.3185C19.6211 8.88869 17.6511 6.91902 15.2213 6.91902C12.7915 6.91902 10.8207 8.88907 10.8207 11.3189C10.8207 13.7487 12.7915 15.7183 15.2213 15.7183ZM17.0876 16.0182H13.3542C10.2478 16.0182 7.7207 18.5458 7.7207 21.6521V26.2178L7.73231 26.2893L8.0468 26.3878C11.0112 27.314 13.5867 27.6229 15.7065 27.6229C19.8469 27.6229 22.2467 26.4424 22.3946 26.3672L22.6885 26.2185H22.72V21.6521C22.7211 18.5458 20.1939 16.0182 17.0876 16.0182ZM24.3669 11.4761H20.6623C20.6222 12.9583 19.9895 14.293 18.9888 15.253C21.7499 16.074 23.7701 18.6345 23.7701 21.6588V23.0658C27.4279 22.9317 29.5358 21.8951 29.6747 21.8254L29.9686 21.6764H30V17.1092C30 14.0033 27.4729 11.4761 24.3669 11.4761ZM7.50094 11.1766C8.36166 11.1766 9.16249 10.9254 9.84088 10.4975C10.0565 9.09087 10.8106 7.86174 11.8877 7.0246C11.8922 6.94223 11.9 6.86061 11.9 6.7775C11.9 4.34732 9.92999 2.37765 7.50094 2.37765C5.07039 2.37765 3.10109 4.34732 3.10109 6.7775C3.10109 9.20655 5.07039 11.1766 7.50094 11.1766ZM11.4523 15.253C10.4564 14.2979 9.82591 12.9703 9.77986 11.4971C9.64246 11.487 9.50655 11.4761 9.36653 11.4761H5.63347C2.52714 11.4761 0 14.0033 0 17.1092V21.6757L0.0116061 21.7461L0.326095 21.8453C2.70423 22.5877 4.82666 22.9299 6.67016 23.0377V21.6588C6.67091 18.6345 8.69038 16.0748 11.4523 15.253Z"/>
</svg>
