<svg width="42" height="40" viewBox="0 0 42 40" xmlns="http://www.w3.org/2000/svg">
<g filter="url(#filter0_d)">
<path d="M24.1037 6.70967C25.4908 7.57939 26.4635 9.05112 26.6406 10.7595C27.2063 11.0238 27.8341 11.1758 28.4998 11.1758C30.93 11.1758 32.8997 9.20612 32.8997 6.77632C32.8997 4.34614 30.93 2.37646 28.4998 2.37646C26.0928 2.37721 24.1404 4.3117 24.1037 6.70967ZM21.2213 15.7183C23.6514 15.7183 25.6211 13.7482 25.6211 11.3184C25.6211 8.88863 23.6511 6.91896 21.2213 6.91896C18.7915 6.91896 16.8207 8.88901 16.8207 11.3188C16.8207 13.7486 18.7915 15.7183 21.2213 15.7183ZM23.0876 16.0182H19.3542C16.2478 16.0182 13.7207 18.5457 13.7207 21.652V26.2177L13.7323 26.2892L14.0468 26.3877C17.0112 27.3139 19.5867 27.6228 21.7065 27.6228C25.8469 27.6228 28.2467 26.4424 28.3946 26.3671L28.6885 26.2185H28.72V21.652C28.7211 18.5457 26.1939 16.0182 23.0876 16.0182ZM30.3669 11.4761H26.6623C26.6222 12.9583 25.9895 14.293 24.9888 15.2529C27.7499 16.074 29.7701 18.6344 29.7701 21.6588V23.0657C33.4279 22.9317 35.5358 21.895 35.6747 21.8254L35.9685 21.6764H36V17.1091C36 14.0032 33.4729 11.4761 30.3669 11.4761ZM13.5009 11.1765C14.3617 11.1765 15.1625 10.9253 15.8409 10.4974C16.0565 9.0908 16.8106 7.86168 17.8877 7.02454C17.8922 6.94217 17.9 6.86055 17.9 6.77744C17.9 4.34726 15.93 2.37759 13.5009 2.37759C11.0704 2.37759 9.10109 4.34726 9.10109 6.77744C9.10109 9.20649 11.0704 11.1765 13.5009 11.1765ZM17.4523 15.2529C16.4564 14.2978 15.8259 12.9703 15.7799 11.497C15.6425 11.4869 15.5066 11.4761 15.3665 11.4761H11.6335C8.52714 11.4761 6 14.0032 6 17.1091V21.6756L6.01161 21.746L6.3261 21.8452C8.70423 22.5876 10.8267 22.9298 12.6702 23.0376V21.6588C12.6709 18.6344 14.6904 16.0747 17.4523 15.2529Z"/>
</g>
<defs>
<filter id="filter0_d" x="0" y="0" width="42" height="42" filterUnits="userSpaceOnUse" color-interpolation-filters="sRGB">
<feFlood flood-opacity="0" result="BackgroundImageFix"/>
<feColorMatrix in="SourceAlpha" type="matrix" values="0 0 0 0 0 0 0 0 0 0 0 0 0 0 0 0 0 0 127 0"/>
<feOffset dy="6"/>
<feGaussianBlur stdDeviation="3"/>
<feColorMatrix type="matrix" values="0 0 0 0 0 0 0 0 0 0 0 0 0 0 0 0 0 0 0.25 0"/>
<feBlend mode="normal" in2="BackgroundImageFix" result="effect1_dropShadow"/>
<feBlend mode="normal" in="SourceGraphic" in2="effect1_dropShadow" result="shape"/>
</filter>
</defs>
</svg>
