<svg width="30" height="30" viewBox="0 0 30 30" xmlns="http://www.w3.org/2000/svg">
<g>
<path d="M12.3633 15.8789H17.6367V17.6367H12.3633V15.8789Z"/>
<path d="M24.3386 17.6366H19.3945V18.5155C19.3945 19.0012 19.0013 19.3944 18.5156 19.3944H11.4844C10.9987 19.3944 10.6055 19.0012 10.6055 18.5155V17.6366H5.66139C4.52499 17.6366 3.51997 16.9122 3.16017 15.8342L0 6.35205V25.5468C0 27.0006 1.18286 28.1835 2.63672 28.1835H27.3633C28.8171 28.1835 30 27.0006 30 25.5468V6.35274L26.8396 15.8342C26.48 16.9122 25.475 17.6366 24.3386 17.6366Z"/>
<path d="M18.5151 1.81641H11.4839C10.03 1.81641 8.84715 2.99927 8.84715 4.45312V5.33203H1.51172L4.82661 15.2781C4.94678 15.6377 5.28232 15.8789 5.66089 15.8789H10.605V15C10.605 14.5143 10.9982 14.1211 11.4839 14.1211H18.5151C19.0008 14.1211 19.394 14.5143 19.394 15V15.8789H24.3381C24.7167 15.8789 25.0522 15.6377 25.1724 15.2781L28.4875 5.33203H21.1518V4.45312C21.1518 2.99927 19.969 1.81641 18.5151 1.81641ZM10.605 5.33203V4.45312C10.605 3.96812 10.9989 3.57422 11.4839 3.57422H18.5151C19.0001 3.57422 19.394 3.96812 19.394 4.45312V5.33203H10.605Z"/>
</g>
</svg>
