<svg width="30" height="30" viewBox="0 0 30 30" xmlns="http://www.w3.org/2000/svg">
<g>
<path d="M14.1211 11.543C14.1211 12.0275 14.5155 12.4219 15 12.4219C15.4845 12.4219 15.8789 12.0275 15.8789 11.543V8.78906C15.5198 8.78906 14.4802 8.78906 14.1211 8.78906V11.543Z"/>
<path d="M11.4844 15.9405C12.2866 14.8723 13.5638 14.1797 15 14.1797C13.5464 14.1797 12.3633 12.9966 12.3633 11.543V8.78906H11.4844C9.06097 8.78906 7.08984 10.7607 7.08984 13.1836V14.2683C8.75038 13.9293 10.4578 14.5734 11.4844 15.9405Z"/>
<path d="M18.5156 15.9405C19.5415 14.5743 21.2485 13.9291 22.9102 14.2683V13.1836C22.9102 10.7607 20.939 8.78906 18.5156 8.78906H17.6367V11.543C17.6367 12.9966 16.4536 14.1797 15 14.1797C16.4362 14.1797 17.7134 14.8723 18.5156 15.9405Z"/>
<path d="M15 8.78906C17.4232 8.78906 19.3945 6.8177 19.3945 4.39453C19.3945 1.97136 17.4232 0 15 0C12.5768 0 10.6055 1.97136 10.6055 4.39453C10.6055 6.8177 12.5768 8.78906 15 8.78906Z"/>
<path d="M29.1211 23.0273H28.1836V20.332C28.1836 19.9535 27.9417 19.6177 27.5823 19.4982L24.6668 18.5262C24.641 17.0947 23.4691 15.9375 22.0312 15.9375C20.5776 15.9375 19.3945 17.1206 19.3945 18.5742C19.3945 21.0702 22.5655 22.169 24.1102 20.1938L26.4258 20.9653V23.0273H22.9102V22.8802C21.2496 23.2191 19.5422 22.5751 18.5156 21.208C18.2659 21.5408 17.9695 21.8374 17.6367 22.088V23.0273H15.8789V21.0599C16.902 20.6971 17.6367 19.7198 17.6367 18.5742C17.6367 17.1206 16.4536 15.9375 15 15.9375C13.5464 15.9375 12.3633 17.1206 12.3633 18.5742C12.3633 19.7198 13.098 20.6971 14.1211 21.0599V23.0273H12.3633V22.088C12.0305 21.8374 11.7341 21.5408 11.4844 21.208C10.4585 22.5742 8.75153 23.2194 7.08984 22.8802V23.0273H3.57422V20.9653L5.88982 20.1938C7.43477 22.1693 10.6055 21.0699 10.6055 18.5742C10.6055 17.1206 9.42238 15.9375 7.96875 15.9375C6.53091 15.9375 5.35904 17.0947 5.33318 18.5262L2.41768 19.4982C2.05833 19.6177 1.81641 19.9535 1.81641 20.332V23.0273H0.878906C0.393448 23.0273 0 23.4208 0 23.9062V29.1211C0 29.6066 0.393448 30 0.878906 30H29.1211C29.6066 30 30 29.6066 30 29.1211V23.9062C30 23.4208 29.6066 23.0273 29.1211 23.0273Z"/>
</g>
</svg>
