<svg width="23" height="30" viewBox="0 0 23 30" fill="none" xmlns="http://www.w3.org/2000/svg">
<path d="M11.0442 0C4.95472 0 0 4.95471 0 11.0448C0 12.6333 0.325136 14.15 0.96589 15.5531C3.72724 21.5956 9.02152 27.9752 10.5787 29.7863C10.6954 29.9217 10.8655 29.9997 11.0445 29.9997C11.2235 29.9997 11.3936 29.9217 11.5102 29.7863C13.0668 27.9755 18.3611 21.5962 21.1234 15.5531C21.7645 14.15 22.0893 12.6333 22.0893 11.0448C22.0887 4.95471 17.134 0 11.0442 0ZM11.0442 16.7815C7.88094 16.7815 5.30718 14.2077 5.30718 11.0445C5.30718 7.88094 7.88094 5.30718 11.0442 5.30718C14.2074 5.30718 16.7812 7.88094 16.7812 11.0445C16.7815 14.2077 14.2077 16.7815 11.0442 16.7815Z" fill="#60B6D9"/>
</svg>
