<svg width="30" height="28" viewBox="0 0 30 28" fill="none" xmlns="http://www.w3.org/2000/svg">
<path d="M29.4003 20.8583L18.89 2.6537C17.1733 -0.353642 12.8321 -0.353642 11.1216 2.6537L0.605129 20.8583C-1.11159 23.8657 1.02505 27.6017 4.48936 27.6017H25.479C28.9433 27.6017 31.117 23.8286 29.4003 20.8583ZM14.9996 23.5631C14.0857 23.5631 13.3261 22.8035 13.3261 21.8896C13.3261 20.9756 14.0857 20.2161 14.9996 20.2161C15.9136 20.2161 16.6731 20.9756 16.6361 21.9328C16.6793 22.8035 15.8765 23.5631 14.9996 23.5631ZM16.5249 12.744C16.4508 14.0408 16.3705 15.3315 16.2964 16.6283C16.2594 17.0482 16.2594 17.4311 16.2594 17.8448C16.2223 18.5302 15.6851 19.0613 14.9996 19.0613C14.3142 19.0613 13.7831 18.5673 13.7399 17.8818C13.6287 15.8625 13.5114 13.8803 13.4002 11.861C13.3632 11.3299 13.3261 10.7927 13.2829 10.2616C13.2829 9.38471 13.7769 8.66221 14.5797 8.43373C15.3825 8.24229 16.1791 8.62516 16.5249 9.38471C16.6422 9.65025 16.6793 9.91578 16.6793 10.2245C16.6422 11.0706 16.562 11.9104 16.5249 12.744Z" fill="#FE2828"/>
</svg>
