<svg width="30" height="21" viewBox="0 0 30 21" fill="none" xmlns="http://www.w3.org/2000/svg">
<path d="M15.0376 12.5942H15.0441C15.2703 12.5942 15.4939 12.5255 15.6748 12.4004L15.7238 12.3674C15.7345 12.3601 15.7457 12.3535 15.7569 12.3457L16.3284 11.8508L29.9685 0.0687042C29.9403 0.0279126 29.8922 0 29.841 0H0.15848C0.121667 0 0.0875 0.0139566 0.0602941 0.0374054L14.3311 12.3495C14.511 12.5054 14.7676 12.5942 15.0376 12.5942ZM0 1.66948V19.1339L10.223 10.4897L0 1.66948ZM19.7876 10.5483L30 19.1384V1.72756L19.7876 10.5483ZM16.5407 13.3521C16.1336 13.7017 15.6011 13.8945 15.0419 13.8945C14.4806 13.8945 13.9486 13.7029 13.5425 13.3549L11.2011 11.3336L0 20.8034V20.8335C0 20.9235 0.0736275 21 0.160588 21H29.8415C29.9269 21 30 20.9235 30 20.833V20.8051L18.8085 11.3928L16.5407 13.3521Z" fill="#60B6D9"/>
</svg>
