<svg width="60" height="60" viewBox="0 0 60 60" fill="none" xmlns="http://www.w3.org/2000/svg">
<g clip-path="url(#clip0)">
<path d="M30.002 37.6897V14.8086C29.3533 14.8686 28.7121 14.9698 28.0597 14.9998H9.37833C8.34339 14.9998 7.50344 15.8398 7.50344 16.8747V18.7496H1.87879C0.843854 18.7496 0.00390625 19.5895 0.00390625 20.6245V31.8738C0.00390625 32.9087 0.843854 33.7487 1.87879 33.7487H7.50344V35.6235C7.50344 36.6585 8.34339 37.4984 9.37833 37.4984H10.5145L18.0515 57.5897C18.5128 58.7933 19.5439 59.667 20.8114 59.922C21.0626 59.9745 21.3138 60.0008 21.5613 60.0008C22.5625 60.0008 23.5149 59.6033 24.1974 58.8908L28.7009 54.4249C29.8521 53.2737 30.1258 51.4776 29.3908 50.0864L23.0987 37.4984H28.0784C28.7234 37.5284 29.3608 37.6297 30.002 37.6897Z" fill="white" fill-opacity="0.2"/>
<path d="M59.6909 0.907443C59.6534 0.843697 59.6196 0.791201 59.5709 0.731204C59.3647 0.468721 59.1059 0.254984 58.7872 0.131242C58.7759 0.127492 58.7684 0.112493 58.7572 0.108743C58.7197 0.0974939 58.6859 0.116243 58.6484 0.104993C58.4797 0.0562465 58.311 0 58.1235 0C57.996 0 57.8835 0.048747 57.7597 0.0749953C57.6885 0.0899944 57.621 0.0937441 57.5498 0.116243C57.2273 0.221236 56.9498 0.401225 56.7286 0.648709C56.7136 0.663709 56.6911 0.667458 56.6761 0.682457C50.8302 7.78076 42.6782 12.528 33.75 14.2679V38.2326C42.6782 39.9725 50.8302 44.716 56.6761 51.8143C56.6911 51.833 56.7173 51.8405 56.7361 51.863C56.8673 52.0093 57.0285 52.1255 57.201 52.223C57.2573 52.2567 57.3023 52.3055 57.3585 52.3317C57.5948 52.433 57.8497 52.4967 58.1235 52.4967C58.3372 52.4967 58.5472 52.4592 58.7572 52.388C58.7684 52.3842 58.7759 52.3692 58.7872 52.3655C59.1059 52.2417 59.3647 52.0317 59.5709 51.7655C59.6159 51.7055 59.6496 51.653 59.6909 51.5893C59.8709 51.3005 59.9984 50.9818 59.9984 50.6218V1.87488C59.9984 1.51491 59.8709 1.19618 59.6909 0.907443Z" fill="white" fill-opacity="0.2"/>
</g>
<defs>
<clipPath id="clip0">
<rect width="60" height="60" fill="white"/>
</clipPath>
</defs>
</svg>
