<svg width="60" height="60" viewBox="0 0 60 60" fill="none" xmlns="http://www.w3.org/2000/svg">
<path d="M52.8 0H7.2C3.24 0 0 3.24 0 7.2V52.8C0 56.76 3.24 60 7.2 60H52.8C56.76 60 60 56.76 60 52.8V7.2C60 3.24 56.76 0 52.8 0ZM31.3008 5.4744L32.2584 10.7112C32.544 12.2208 32.808 13.8624 33.0096 15.1464H33.0504C33.2568 13.7664 33.5568 12.2424 33.8784 10.6776L34.9488 5.4768H38.0016L39.0216 10.8264C39.3048 12.3192 39.5112 13.6776 39.6984 15.084H39.7392C39.9264 13.6728 40.2072 12.1848 40.476 10.6752L41.5104 5.4744H44.4336L41.1528 18.1752H38.0448L36.972 12.7104C36.7248 11.4312 36.5208 10.2456 36.3672 8.796H36.3288C36.1032 10.2264 35.8968 11.4312 35.5944 12.7104L34.3896 18.1752H31.2408L28.2264 5.4744H31.3008ZM18.9936 5.4744H26.832V7.8288H21.876V10.4688H26.5512V12.8064H21.876V15.8184H27.096V18.1752H18.996L18.9936 5.4744ZM5.9832 5.4744H9.336L11.9736 10.128C12.7272 11.4648 13.4808 13.0512 14.0472 14.4816H14.1024C13.9128 12.804 13.8576 11.0904 13.8576 9.1848V5.472H16.4952V18.1728H13.4808L10.7688 13.272C10.0152 11.9208 9.1848 10.2792 8.5656 8.7936L8.508 8.8104C8.5848 10.4832 8.6232 12.2736 8.6232 14.3496V18.1752H5.9856L5.9832 5.4744ZM54 51.6C54 52.92 52.92 54 51.6 54H8.4C7.08 54 6 52.92 6 51.6V22.8H54V51.6ZM48.8928 18.3624C47.4432 18.3624 46.0104 17.9856 45.2928 17.592L45.876 15.216C46.6488 15.6168 47.8344 16.0056 49.0632 16.0056C50.3784 16.0056 51.0792 15.4608 51.0792 14.6352C51.0792 13.8456 50.4768 13.3872 48.9504 12.8424C46.8408 12.108 45.4632 10.9416 45.4632 9.096C45.4632 6.9264 47.2728 5.268 50.268 5.268C51.6984 5.268 52.752 5.5728 53.5104 5.9112L52.8696 8.2248C52.3584 7.9824 51.4536 7.6272 50.208 7.6272C48.9648 7.6272 48.3648 8.1912 48.3648 8.8512C48.3648 9.6624 49.08 10.0152 50.7168 10.6416C52.9584 11.4672 54.0144 12.6336 54.0144 14.4288C54.0168 16.5528 52.3776 18.3624 48.8928 18.3624Z" fill="white" fill-opacity="0.2"/>
<path d="M9.30938 28.1456H27.439C28.099 28.1456 28.639 27.6944 28.639 27.1472C28.639 26.5976 28.099 26.1464 27.439 26.1464H9.30938C8.64938 26.1464 8.10938 26.5976 8.10938 27.1472C8.10938 27.6944 8.64938 28.1456 9.30938 28.1456Z" fill="white" fill-opacity="0.2"/>
<path d="M9.30938 32.6489H27.439C28.099 32.6489 28.639 32.1977 28.639 31.6505C28.639 31.1009 28.099 30.6473 27.439 30.6473H9.30938C8.64938 30.6473 8.10938 31.0985 8.10938 31.6505C8.10938 32.1953 8.64938 32.6489 9.30938 32.6489Z" fill="white" fill-opacity="0.2"/>
<path d="M9.30938 37.1516H27.439C28.099 37.1516 28.639 36.7004 28.639 36.1532C28.639 35.606 28.099 35.1548 27.439 35.1548H9.30938C8.64938 35.1548 8.10938 35.606 8.10938 36.1532C8.10938 36.7004 8.64938 37.1516 9.30938 37.1516Z" fill="white" fill-opacity="0.2"/>
<path d="M9.30938 41.6516H27.439C28.099 41.6516 28.639 41.2004 28.639 40.6532C28.639 40.106 28.099 39.6548 27.439 39.6548H9.30938C8.64938 39.6548 8.10938 40.106 8.10938 40.6532C8.10938 41.2028 8.64938 41.6516 9.30938 41.6516Z" fill="white" fill-opacity="0.2"/>
<path d="M9.30938 46.1499H27.439C28.099 46.1499 28.639 45.6987 28.639 45.1515C28.639 44.6019 28.099 44.1483 27.439 44.1483H9.30938C8.64938 44.1483 8.10938 44.5995 8.10938 45.1515C8.10938 45.7011 8.64938 46.1499 9.30938 46.1499Z" fill="white" fill-opacity="0.2"/>
<path d="M9.30938 50.6526H27.439C28.099 50.6526 28.639 50.2014 28.639 49.6542C28.639 49.107 28.099 48.6558 27.439 48.6558H9.30938C8.64938 48.6558 8.10938 49.107 8.10938 49.6542C8.10938 50.2062 8.64938 50.6526 9.30938 50.6526Z" fill="white" fill-opacity="0.2"/>
<path d="M32.5594 28.1456H50.6914C51.3514 28.1456 51.8914 27.6944 51.8914 27.1472C51.8914 26.5976 51.3514 26.1464 50.6914 26.1464H32.5594C31.9018 26.1464 31.3594 26.5976 31.3594 27.1472C31.3594 27.6944 31.9018 28.1456 32.5594 28.1456Z" fill="white" fill-opacity="0.2"/>
<path d="M32.5594 32.6489H50.6914C51.3514 32.6489 51.8914 32.1977 51.8914 31.6505C51.8914 31.1009 51.3514 30.6473 50.6914 30.6473H32.5594C31.9018 30.6473 31.3594 31.0985 31.3594 31.6505C31.3594 32.1953 31.9018 32.6489 32.5594 32.6489Z" fill="white" fill-opacity="0.2"/>
<path d="M32.5594 37.1516H50.6914C51.3514 37.1516 51.8914 36.7004 51.8914 36.1532C51.8914 35.606 51.3514 35.1548 50.6914 35.1548H32.5594C31.9018 35.1548 31.3594 35.606 31.3594 36.1532C31.3594 36.7004 31.9018 37.1516 32.5594 37.1516Z" fill="white" fill-opacity="0.2"/>
<path d="M32.5594 41.6516H50.6914C51.3514 41.6516 51.8914 41.2004 51.8914 40.6532C51.8914 40.106 51.3514 39.6548 50.6914 39.6548H32.5594C31.9018 39.6548 31.3594 40.106 31.3594 40.6532C31.3594 41.2028 31.9018 41.6516 32.5594 41.6516Z" fill="white" fill-opacity="0.2"/>
<path d="M32.5594 46.1499H50.6914C51.3514 46.1499 51.8914 45.6987 51.8914 45.1515C51.8914 44.6019 51.3514 44.1483 50.6914 44.1483H32.5594C31.9018 44.1483 31.3594 44.5995 31.3594 45.1515C31.3594 45.7011 31.9018 46.1499 32.5594 46.1499Z" fill="white" fill-opacity="0.2"/>
<path d="M32.5594 50.6526H50.6914C51.3514 50.6526 51.8914 50.2014 51.8914 49.6542C51.8914 49.107 51.3514 48.6558 50.6914 48.6558H32.5594C31.9018 48.6558 31.3594 49.107 31.3594 49.6542C31.3594 50.2062 31.9018 50.6526 32.5594 50.6526Z" fill="white" fill-opacity="0.2"/>
</svg>
