<svg width="30" height="30" viewBox="0 0 30 30" fill="none" xmlns="http://www.w3.org/2000/svg">
<g opacity="0.5">
<path d="M23.9904 13.115V9.08314C23.9904 4.07555 19.9167 0 14.9072 0C9.89773 0 5.82788 4.07555 5.82788 9.08314V13.115H4.0625V30H25.9323V13.115H23.9904ZM17.0466 21.8527V25.4233C17.0466 26.3535 16.2929 27.1071 15.3628 27.1071C14.4308 27.1071 13.6772 26.3554 13.6772 25.4233V21.8527C13.0906 21.3667 12.709 20.6397 12.709 19.8197C12.709 18.3542 13.8974 17.1678 15.3628 17.1678C16.8283 17.1678 18.0128 18.3542 18.0128 19.8197C18.0147 20.6416 17.6331 21.3667 17.0466 21.8527ZM20.6874 13.115H9.13084V9.08314C9.13084 5.89598 11.7239 3.30296 14.911 3.30296C18.0963 3.30296 20.6893 5.89598 20.6893 9.08314V13.115H20.6874Z" fill="#1E3139"/>
</g>
</svg>
