<svg width="60" height="60" viewBox="0 0 60 60" fill="none" xmlns="http://www.w3.org/2000/svg">
<path d="M51.2152 8.78632C39.4993 -2.92828 20.5037 -2.92959 8.78644 8.78632C-2.92947 20.5022 -2.92816 39.4979 8.78644 51.2151C20.5023 62.9284 39.498 62.9297 51.2152 51.2151C62.9298 39.4979 62.9285 20.5035 51.2152 8.78632ZM33.9126 43.0445C33.9126 45.2058 32.1609 46.9576 29.9995 46.9576C27.8382 46.9576 26.0864 45.2058 26.0864 43.0445V27.3919C26.0864 25.2306 27.8382 23.4788 29.9995 23.4788C32.1609 23.4788 33.9126 25.2306 33.9126 27.3919V43.0445ZM29.9304 20.7031C27.6764 20.7031 26.1738 19.1065 26.2207 17.1356C26.1738 15.0695 27.6764 13.5212 29.976 13.5212C32.277 13.5212 33.7326 15.0708 33.7809 17.1356C33.7796 19.1065 32.2783 20.7031 29.9304 20.7031Z" fill="white" fill-opacity="0.2"/>
</svg>
