<svg width="66" height="80" viewBox="0 0 66 80" fill="none" xmlns="http://www.w3.org/2000/svg">
<g opacity="0.2">
<path d="M37.5 42.3438H51.5625V47.0312H37.5V42.3438Z" fill="white"/>
<path d="M65.625 28.2812H23.4375V80H65.625V28.2812ZM37.5 70.4688H32.8125V65.7812H37.5V70.4688ZM37.5 61.0938H32.8125V56.4062H37.5V61.0938ZM46.875 70.4688H42.1875V65.7812H46.875V70.4688ZM46.875 61.0938H42.1875V56.4062H46.875V61.0938ZM56.25 70.4688H51.5625V65.7812H56.25V70.4688ZM56.25 61.0938H51.5625V56.4062H56.25V61.0938ZM56.25 51.7188H32.8125V37.6562H56.25V51.7188Z" fill="white"/>
<path d="M14.0639 14.2192V0.237305C6.90656 1.27496 1.27594 7.06184 0.238281 14.2192H14.0639Z" fill="white"/>
<path d="M0 70.4688H18.75V23.5938H51.5625V0H18.75V18.9062H0V70.4688Z" fill="white"/>
</g>
</svg>
