<svg width="65" height="81" viewBox="0 0 65 81" fill="none" xmlns="http://www.w3.org/2000/svg">
<g opacity="0.2">
<path d="M10.5679 50.3311L1.16846 68.5609C-0.711718 74.9401 5.39348 80.0014 10.6066 80.0014C15.8198 80.0014 22.2261 75.0319 20.0448 68.5609L10.5679 50.3311Z" fill="white"/>
<path d="M62.9055 28.7553C62.5412 28.1171 62.1382 27.4918 61.6678 26.8923V26.878C61.6105 26.812 61.5488 26.7489 61.49 26.6829C58.5643 23.4374 54.553 20.929 52.0332 19.5407C42.6423 14.7132 30.6643 12.4401 26.1424 12.4401C13.9464 12.4401 4.02344 22.0921 4.02344 33.9556C4.02344 34.1966 4.07077 34.4246 4.09371 34.6584H18.2933C18.3162 34.4232 18.3635 34.1966 18.3635 33.9556C18.3635 30.0002 21.8528 26.7819 26.141 26.7819C33.0106 26.7819 47.4998 32.0066 50.1932 35.3511V70.5143C50.1932 74.477 53.4014 77.6852 57.3639 77.6852C61.3265 77.6852 64.5347 74.477 64.5347 70.5143V34.6211C64.5361 32.5042 63.9352 30.5538 62.9055 28.7553Z" fill="white"/>
<path d="M0 44.6991H21.5123V41.8307H10.0391V40.3965H21.5123V36.094H0V44.6991Z" fill="white"/>
<path d="M53.244 10.8137L54.5864 11.2841C54.5276 11.4835 54.4974 11.6914 54.4974 11.9037V19.2854C56.696 20.6092 59.3836 22.4664 61.6682 24.7554V13.7667V11.9037V11.5279L61.6295 11.5107C61.4359 10.0106 60.1738 8.84459 58.635 8.84459H58.1345C57.5838 8.84459 57 9.00809 56.4594 9.27341L54.8617 8.58213L35.0374 0C35.0374 0 32.628 1.42414 33.2347 3.79771L53.244 10.8137Z" fill="white"/>
</g>
</svg>
