<svg width="81" height="80" viewBox="0 0 81 80" fill="none" xmlns="http://www.w3.org/2000/svg">
<g opacity="0.2">
<path d="M13.9623 11.9234C13.7275 11.6879 13.582 11.3772 13.5513 11.0462L13.0136 5.20781L3.57058 0.926758L0.945312 3.54807L5.22486 12.9951L11.0626 13.5316C11.3941 13.5623 11.7041 13.7086 11.9395 13.9441L30.5017 32.4954L32.5084 30.4872L13.9623 11.9234Z" fill="white"/>
<path d="M54.4159 36.834C54.7746 36.4717 55.3012 36.3302 55.793 36.464C62.0472 38.1446 68.725 36.4382 73.4064 31.9628C78.0886 27.4873 80.0967 20.8915 78.7029 14.5654L69.6597 23.5985C69.278 23.979 68.7138 24.1114 68.2019 23.9407L59.1238 20.9173C58.6976 20.7752 58.3632 20.4414 58.2204 20.015L55.1967 10.9393C55.0254 10.4265 55.1584 9.86069 55.5401 9.47815L64.5701 0.433866C58.2483 -0.958313 51.6576 1.05052 47.1858 5.73223C42.7133 10.4139 41.0075 17.0912 42.6848 23.3456C42.8164 23.8382 42.6757 24.3636 42.3149 24.7245L2.08754 64.9702C-0.695845 67.7609 -0.695845 72.2781 2.08754 75.0681L4.09845 77.0804C6.8881 79.864 11.4038 79.864 14.1927 77.0804L54.4159 36.834Z" fill="white"/>
<path d="M53.6981 51.6858L48.6545 46.6404L48.2693 47.0257L46.6484 48.6464L51.6928 53.6912L53.6981 51.6858Z" fill="white"/>
<path d="M75.895 77.9138L77.9121 75.8959C80.6976 73.1095 80.6976 68.5915 77.9121 65.8051L60.764 48.6509L48.6602 60.761L65.8083 77.9138C68.5952 80.6954 73.1074 80.6954 75.895 77.9138Z" fill="white"/>
</g>
</svg>
