<svg width="103" height="81" viewBox="0 0 103 81" fill="none" xmlns="http://www.w3.org/2000/svg">
<g opacity="0.2">
<path d="M60.2687 54.2889C66.4231 51.6942 71.2816 48.1625 74.8418 43.6922C78.4016 39.223 80.1817 34.3559 80.1817 29.0908C80.1817 23.8255 78.4016 18.958 74.8404 14.4886C71.2806 10.0191 66.4229 6.48698 60.2677 3.89175C54.1124 1.29692 47.4177 0 40.1825 0C32.9478 0 26.2531 1.29771 20.0975 3.89175C13.9424 6.48678 9.0845 10.0189 5.5245 14.4886C1.96409 18.9588 0.183594 23.8255 0.183594 29.091C0.183594 33.5981 1.53026 37.8423 4.21942 41.8194C6.90838 45.7957 10.6017 49.1486 15.2982 51.8753C14.9197 52.7852 14.5315 53.6174 14.1337 54.376C13.7357 55.1334 13.2626 55.862 12.713 56.5633C12.1637 57.2648 11.738 57.8137 11.4348 58.2101C11.1317 58.6077 10.6393 59.1677 9.95714 59.8861C9.27515 60.6059 8.83933 61.0793 8.65027 61.306C8.65027 61.268 8.57445 61.3538 8.42281 61.5621C8.27097 61.7705 8.1858 61.8646 8.16709 61.8469C8.14799 61.8264 8.07216 61.9211 7.93963 62.1295C7.80709 62.338 7.74062 62.4421 7.74062 62.4421L7.59833 62.7253C7.54221 62.8397 7.50361 62.9516 7.4849 63.066C7.4658 63.1788 7.45624 63.3028 7.45624 63.435C7.45624 63.5671 7.47495 63.6897 7.51356 63.8039C7.58938 64.2957 7.80709 64.6927 8.16689 64.9971C8.52649 65.2996 8.91436 65.4507 9.33147 65.4507H9.50202C11.3956 65.1856 13.0246 64.8827 14.388 64.5414C20.2212 63.027 25.4867 60.6017 30.1834 57.2688C33.5922 57.875 36.9255 58.1778 40.1829 58.1778C47.4181 58.1804 54.1136 56.8839 60.2687 54.2889Z" fill="white"/>
<path d="M97.9674 56.3898C100.658 52.4318 102.002 48.1815 102.002 43.6356C102.002 38.9761 100.58 34.6175 97.7397 30.5649C94.8985 26.5128 91.0344 23.141 86.1487 20.4517C87.0191 23.2923 87.4547 26.1709 87.4547 29.0881C87.4547 34.1633 86.1875 38.9739 83.6479 43.5198C81.1102 48.0642 77.4738 52.079 72.7393 55.5644C68.3452 58.7461 63.3452 61.1884 57.7389 62.8935C52.1341 64.5974 46.2815 65.4504 40.183 65.4504C39.0471 65.4504 37.3802 65.3753 35.1836 65.2241C42.7967 70.2229 51.7363 72.7236 62.0008 72.7236C65.2587 72.7236 68.5916 72.4199 72.001 71.8139C76.6975 75.1483 81.9632 77.5714 87.796 79.0874C89.1596 79.4293 90.7885 79.7316 92.6824 79.9964C93.1367 80.0345 93.5542 79.9017 93.9327 79.5986C94.3115 79.2958 94.558 78.8802 94.6711 78.3505C94.6533 78.123 94.6711 77.9982 94.7282 77.9801C94.7841 77.9622 94.7745 77.8384 94.6995 77.6116C94.6247 77.3839 94.5865 77.2703 94.5865 77.2703L94.4448 76.9869C94.4054 76.9121 94.3413 76.8072 94.246 76.675C94.1513 76.5437 94.0758 76.4476 94.0185 76.3911C93.9628 76.3346 93.8782 76.2392 93.7638 76.1077C93.6508 75.9763 93.5745 75.8904 93.5363 75.8524C93.3471 75.6249 92.9116 75.1517 92.2301 74.4317C91.5477 73.7127 91.0561 73.154 90.753 72.7564C90.45 72.3586 90.0237 71.8098 89.4746 71.1083C88.9258 70.4082 88.4517 69.6788 88.0539 68.921C87.6563 68.1636 87.2681 67.33 86.8894 66.4215C91.5863 63.6919 95.2786 60.3492 97.9674 56.3898Z" fill="white"/>
</g>
</svg>
