<svg width="60" height="60" viewBox="0 0 60 60" fill="none" xmlns="http://www.w3.org/2000/svg">
<path d="M57.8571 15H47.1429V2.1429C47.1429 0.959388 46.1835 0 45 0H2.1429C0.959388 0 0 0.959388 0 2.1429V51.4285C0 56.1624 3.83755 60 8.57146 60H51.4285C56.1624 60 60 56.1624 60 51.4285V17.1428C60 15.9594 59.0406 15 57.8571 15ZM17.1428 10.7142H29.9999C31.1834 10.7142 32.1428 11.6736 32.1428 12.8571C32.1428 14.0406 31.1834 15 29.9999 15H17.1428C15.9593 15 14.9999 14.0406 14.9999 12.8571C14.9999 11.6736 15.9594 10.7142 17.1428 10.7142ZM36.4285 51.4285H10.7142C9.53073 51.4285 8.57134 50.4691 8.57134 49.2856C8.57134 48.1021 9.53073 47.1427 10.7142 47.1427H36.4285C37.612 47.1427 38.5714 48.1021 38.5714 49.2856C38.5714 50.4691 37.612 51.4285 36.4285 51.4285ZM36.4285 42.8571H10.7142C9.53073 42.8571 8.57134 41.8977 8.57134 40.7142C8.57134 39.5307 9.53073 38.5713 10.7142 38.5713H36.4285C37.612 38.5713 38.5714 39.5307 38.5714 40.7142C38.5714 41.8977 37.612 42.8571 36.4285 42.8571ZM36.4285 34.2857H10.7142C9.53073 34.2857 8.57134 33.3263 8.57134 32.1428C8.57134 30.9593 9.53073 29.9999 10.7142 29.9999H36.4285C37.612 29.9999 38.5714 30.9593 38.5714 32.1428C38.5714 33.3263 37.612 34.2857 36.4285 34.2857ZM36.4285 25.7143H10.7142C9.53073 25.7143 8.57134 24.7549 8.57134 23.5714C8.57134 22.3879 9.53073 21.4285 10.7142 21.4285H36.4285C37.612 21.4285 38.5714 22.3879 38.5714 23.5714C38.5714 24.7549 37.612 25.7143 36.4285 25.7143ZM55.7142 51.4285C55.7142 53.7954 53.7954 55.7142 51.4285 55.7142C49.0616 55.7142 47.1429 53.7954 47.1429 51.4285V19.2857H55.7143V51.4285H55.7142Z" fill="white" fill-opacity="0.2"/>
</svg>
