<svg width="21" height="21" viewBox="0 0 21 21" fill="none" xmlns="http://www.w3.org/2000/svg">
<path d="M4.0725 9.26685C5.6925 12.478 8.3025 15.0991 11.4862 16.7443L13.9613 14.2481C14.265 13.9417 14.715 13.8396 15.1088 13.9757C16.3687 14.3956 17.73 14.6225 19.125 14.6225C19.7437 14.6225 20.25 15.1331 20.25 15.7572V19.7172C20.25 20.3413 19.7437 20.8519 19.125 20.8519C8.56125 20.8519 0 12.217 0 1.56241C0 0.938338 0.50625 0.427734 1.125 0.427734H5.0625C5.68125 0.427734 6.1875 0.938338 6.1875 1.56241C6.1875 2.98075 6.4125 4.34236 6.82875 5.61319C6.9525 6.01033 6.8625 6.45285 6.5475 6.77056L4.0725 9.26685Z" fill="#0B8EC5"/>
</svg>
