<svg width="40" height="40" viewBox="0 0 40 40" xmlns="http://www.w3.org/2000/svg">
<circle cx="20" cy="20" r="20"/>
<path d="M29.6912 12.4634C29.4468 12.1646 29.0809 12 28.6608 12C28.4322 12 28.1904 12.0482 27.9417 12.1431L11.012 18.6056C10.1136 18.9485 9.99255 19.463 10.0003 19.7394C10.0081 20.0156 10.1581 20.5224 11.0745 20.8139C11.08 20.8157 11.0855 20.8172 11.091 20.8189L13.4653 21.4982L25.0283 15.5908C25.3164 15.4434 25.6695 15.5579 25.8167 15.8461C25.9324 16.0725 25.886 16.3387 25.7212 16.5138L25.7217 16.5143L19.2926 23.3455L19.1092 24.0887L21.405 25.9375L24.5864 28.4992C24.5892 28.5014 24.5919 28.5037 24.5948 28.5058C24.9449 28.7774 25.3272 28.9208 25.7006 28.921C26.4303 28.921 27.0112 28.381 27.1804 27.5454L29.9543 13.8486C30.0655 13.299 29.9722 12.8069 29.6912 12.4634Z" fill="white"/>
<path d="M18.1904 22.9157C18.2137 22.8209 18.2607 22.7306 18.3323 22.6544L22.5509 18.1719L14.7227 22.1712L16.5001 27.2547C16.6015 27.5443 16.7522 27.7908 16.9387 27.9839L18.1901 22.9155L18.1904 22.9157Z" fill="white"/>
<path d="M18.0312 28.4541C18.4538 28.4506 18.869 28.2724 19.2327 27.9374L20.5332 26.7399L18.7992 25.3438L18.0312 28.4541Z" fill="white"/>
</svg>
