<svg width="20" height="17" viewBox="0 0 20 17" xmlns="http://www.w3.org/2000/svg">
<path fill-rule="evenodd" clip-rule="evenodd" d="M19.6912 0.465571C19.4468 0.16541 19.0809 0 18.6608 0C18.4322 0 18.1904 0.0484427 17.9417 0.143795L1.01199 6.63649C0.113556 6.98096 -0.00744537 7.49788 0.000336564 7.77551C0.00811849 8.05298 0.158112 8.56224 1.07455 8.85504L1.08554 8.85845L1.09103 8.8601L3.46528 9.54259L15.0283 3.6076C15.3164 3.45951 15.6695 3.57449 15.8167 3.86407C15.9324 4.09157 15.886 4.35892 15.7212 4.53491L15.7217 4.53537L9.29258 11.3984L9.10917 12.1452L11.405 14.0025L14.5864 16.5763L14.5903 16.5794L14.5948 16.5829C14.9449 16.8557 15.3272 16.9998 15.7006 17C16.4303 17 17.0112 16.4575 17.1804 15.618L19.9543 1.85722C20.0655 1.30504 19.9722 0.810648 19.6912 0.465571ZM8.19174 10.9666C8.21509 10.8714 8.26208 10.7807 8.33365 10.7042L12.5522 6.20068L4.72404 10.2187L6.50153 15.3259C6.60285 15.6168 6.7536 15.8646 6.94007 16.0585L8.19144 10.9665L8.19174 10.9666ZM9.23234 16.0118C8.86857 16.3483 8.45337 16.5273 8.03086 16.5309L8.79883 13.406L10.5328 14.8087L9.23234 16.0118Z"/>
</svg>
