<svg width="30" height="30" viewBox="0 0 30 30" fill="none" xmlns="http://www.w3.org/2000/svg">
<path d="M15 0.0307617C6.729 0.0307617 0 6.75976 0 15.0308C0 23.3018 6.729 29.9703 15 29.9703C23.271 29.9703 30 23.3018 30 15.0308C30 6.75976 23.271 0.0307617 15 0.0307617ZM16 15.4698C16 16.0218 15.552 16.4698 15 16.4698H7C6.448 16.4698 6 16.0218 6 15.4698C6 14.9178 6.448 14.4698 7 14.4698H14V3.46976C14 2.91776 14.448 2.46976 15 2.46976C15.552 2.46976 16 2.91776 16 3.46976V15.4698Z" fill="#60B6D9"/>
</svg>
