<svg width="20" height="18" viewBox="0 0 20 18" xmlns="http://www.w3.org/2000/svg">
<path d="M19.6819 2.61708C19.2375 2.81413 18.7763 2.96958 18.3029 3.08212C18.8245 2.58651 19.2166 1.96659 19.4379 1.27466C19.501 1.07713 19.2864 0.906312 19.1081 1.01208C18.4496 1.40266 17.7403 1.69567 16.9998 1.88306C16.9569 1.89394 16.9126 1.89945 16.8681 1.89945C16.7332 1.89945 16.6021 1.84937 16.499 1.75848C15.7112 1.06415 14.6979 0.681763 13.646 0.681763C13.1908 0.681763 12.7312 0.752712 12.28 0.892659C10.8819 1.3263 9.80311 2.47957 9.46465 3.90245C9.33767 4.43615 9.3033 4.97034 9.36239 5.49014C9.36917 5.54987 9.34094 5.59157 9.32353 5.61112C9.29296 5.6454 9.24961 5.66505 9.2046 5.66505C9.19958 5.66505 9.19441 5.66481 9.18929 5.66432C6.12889 5.37999 3.36915 3.90557 1.41842 1.51272C1.31895 1.39067 1.12819 1.40564 1.0489 1.54163C0.666901 2.19699 0.465027 2.94657 0.465027 3.7093C0.465027 4.87823 0.934654 5.97981 1.75039 6.78287C1.40735 6.70154 1.07533 6.57344 0.766913 6.40214C0.617701 6.31924 0.434111 6.42579 0.432015 6.59645C0.410657 8.33297 1.42735 9.87814 2.95038 10.5739C2.91971 10.5747 2.88904 10.575 2.85832 10.575C2.6169 10.575 2.37245 10.5517 2.13186 10.5057C1.96383 10.4736 1.82266 10.633 1.87484 10.7959C2.36918 12.3393 3.69805 13.4769 5.28828 13.7352C3.96848 14.6212 2.43155 15.0885 0.831912 15.0885L0.333223 15.0882C0.179574 15.0882 0.0496227 15.1884 0.0104668 15.3372C-0.028104 15.4838 0.0429423 15.6384 0.173966 15.7146C1.9765 16.7636 4.03256 17.3181 6.12074 17.3181C7.94859 17.3181 9.65838 16.9553 11.2027 16.24C12.6184 15.5842 13.8694 14.6467 14.921 13.4537C15.9007 12.3423 16.6667 11.0593 17.1978 9.64043C17.7041 8.28791 17.9717 6.84475 17.9717 5.46693V5.4013C17.9717 5.18006 18.0717 4.9719 18.2463 4.83019C18.9087 4.29235 19.4856 3.65922 19.9608 2.94842C20.0862 2.76073 19.8884 2.5255 19.6819 2.61708Z"/>
</svg>
