<svg width="80" height="80" viewBox="0 0 80 80" fill="none" xmlns="http://www.w3.org/2000/svg">
<g opacity="0.2">
<path d="M3.20647 79.9993H76.7934C77.7762 79.9993 78.6927 79.5738 79.3076 78.8328C79.842 78.1901 80.0785 77.3746 79.977 76.5369C78.2514 62.2847 69.985 50.4083 58.6683 44.0762C53.8851 49.1471 47.2818 52.2879 40.0001 52.2879C32.7184 52.2879 26.1148 49.1471 21.3319 44.0762C10.0149 50.4066 1.74692 62.2847 0.0228957 76.5369C-0.0785742 77.3746 0.159477 78.1918 0.692275 78.8328C1.30722 79.5738 2.22367 79.9993 3.20647 79.9993Z" fill="#1E3139"/>
<path d="M23.4203 40.9955C23.8497 41.4729 24.2981 41.9278 24.7623 42.368C28.8166 46.2129 34.1481 48.5717 40.0018 48.5717C45.8555 48.5717 51.187 46.2109 55.2413 42.368C55.7055 41.9278 56.1542 41.4725 56.5833 40.9955C57.0107 40.5181 57.4279 40.0297 57.8202 39.5171C60.9967 35.347 62.9098 30.0517 62.9098 24.2862C62.9098 10.8939 52.6321 0 40.0015 0C27.3709 0 17.0938 10.8956 17.0938 24.2858C17.0938 30.0514 19.0069 35.347 22.1834 39.5168C22.5741 40.0297 22.9909 40.5163 23.4203 40.9955Z" fill="#1E3139"/>
</g>
</svg>
