<svg width="40" height="40" viewBox="0 0 40 40" xmlns="http://www.w3.org/2000/svg">
<circle cx="20" cy="20" r="20"/>
<path d="M14.7471 29.2403C14.7532 28.6027 14.7656 27.9651 14.7718 27.3274C14.7718 27.1789 14.7903 27.1974 14.6483 27.1355C13.8579 26.8198 13.123 26.4236 12.4747 25.8665C11.7892 25.2783 11.252 24.585 10.8568 23.774C10.4801 22.994 10.2702 22.1645 10.1529 21.3102C10.1096 20.9759 10.0849 20.6416 10.0849 20.3073C10.0849 19.9916 10.0355 19.6758 10.0293 19.3601C10.0232 19.1372 10.017 18.9082 10.0232 18.6853C10.0294 18.2272 9.98612 17.7691 10.0046 17.311C10.0417 16.271 10.227 15.2557 10.6345 14.29C11.215 12.9157 12.1659 11.8756 13.4627 11.1451C14.4383 10.6004 15.4757 10.2537 16.5749 10.0742C17.2541 9.96274 17.9334 9.90083 18.6188 9.88226C19.4339 9.8575 20.249 9.86369 21.0703 9.87607C22.12 9.88845 23.1574 9.9875 24.1763 10.2351C25.1458 10.4642 26.0597 10.8294 26.8995 11.368C27.9184 12.018 28.6964 12.8785 29.2213 13.9743C29.5486 14.649 29.7462 15.361 29.8758 16.0976C29.9685 16.6424 30.0055 17.1872 29.9993 17.7382C29.9932 18.3201 29.9808 18.902 29.9438 19.4777C29.9191 19.8739 29.9191 20.2701 29.9005 20.6663C29.8326 21.7621 29.6103 22.8207 29.1287 23.8112C28.5359 25.0245 27.6405 25.9407 26.4672 26.6031C25.4978 27.1479 24.4604 27.4884 23.3736 27.6741C22.5214 27.8165 21.6569 27.8846 20.7924 27.8846C20.2613 27.8846 19.7303 27.8784 19.1992 27.8846C18.9275 27.8846 18.6558 27.8908 18.3841 27.8598C18.2977 27.8536 18.2359 27.8784 18.1804 27.9465C17.7543 28.4418 17.3282 28.937 16.896 29.4323C16.3649 30.0451 15.8339 30.658 15.309 31.2647C15.2534 31.3266 15.1917 31.3885 15.1237 31.4318C14.957 31.5433 14.7841 31.4814 14.7409 31.2833C14.7285 31.2399 14.7347 31.1842 14.7347 31.1409C14.7285 30.5094 14.7409 29.8718 14.7471 29.2403Z" fill="white"/>
<path d="M13.9023 15.5346C13.9209 14.7794 14.2667 14.2098 14.8903 13.8013C15.1497 13.6279 15.4337 13.4917 15.7425 13.4298C16.0636 13.3617 16.3723 13.4051 16.644 13.6094C16.8231 13.7394 16.9713 13.9003 17.1195 14.0613C17.6135 14.606 18.0334 15.1942 18.3731 15.8504C18.4286 15.9618 18.478 16.0794 18.5151 16.2032C18.6201 16.5561 18.5398 16.8656 18.3051 17.138C18.2187 17.2371 18.1199 17.3237 18.0149 17.4042C17.9161 17.4723 17.8173 17.5466 17.7247 17.6333C17.5086 17.8376 17.4468 18.0852 17.5147 18.3699C17.5394 18.4876 17.5827 18.599 17.6259 18.7042C17.8791 19.2614 18.2187 19.7628 18.6571 20.1962C18.9165 20.45 19.1943 20.6729 19.5031 20.8648C19.7995 21.0505 20.0959 21.2238 20.4293 21.3415C20.7381 21.4529 20.9727 21.3848 21.1765 21.1248C21.263 21.0133 21.3371 20.8957 21.4359 20.7905C21.6211 20.5924 21.8311 20.4438 22.0966 20.3819C22.3868 20.3138 22.6647 20.3633 22.9302 20.481C23.1834 20.5862 23.4057 20.7471 23.628 20.9019C24.0726 21.2114 24.5048 21.5395 24.9247 21.88C25.0359 21.9729 25.1347 22.0781 25.2273 22.1958C25.4434 22.4805 25.4867 22.7962 25.394 23.1305C25.3076 23.4525 25.147 23.731 24.9371 23.9848C24.5728 24.4306 24.1282 24.7649 23.5786 24.9444C23.4304 24.9939 23.2822 25.0249 23.1278 25.0373C22.9302 25.0558 22.745 24.9877 22.5597 24.932C22.3806 24.8825 22.2139 24.7958 22.0472 24.7215C21.2136 24.3501 20.4108 23.9106 19.6513 23.4029C18.5089 22.6415 17.49 21.75 16.6008 20.7038C15.9401 19.9238 15.3658 19.0819 14.878 18.178C14.5631 17.6023 14.2852 17.008 14.0505 16.3951C13.9579 16.1289 13.9023 15.7885 13.9023 15.5346Z"/>
<path d="M25.7936 18.0544C25.7874 18.2587 25.8121 18.4073 25.7936 18.5497C25.7504 18.9025 25.4416 19.0882 25.1143 18.952C24.9167 18.8716 24.855 18.6982 24.8365 18.5063C24.8179 18.2711 24.7994 18.0358 24.7624 17.8006C24.6389 17.0763 24.4413 16.3767 24.0522 15.7453C23.762 15.2748 23.3853 14.891 22.916 14.5877C22.3726 14.2348 21.7675 14.0305 21.1376 13.8881C20.8659 13.8262 20.5881 13.7767 20.3102 13.7519C20.2423 13.7457 20.1805 13.7333 20.1188 13.7086C19.9273 13.6405 19.8285 13.4981 19.8409 13.2938C19.8656 12.9348 20.0694 12.7924 20.3472 12.7924C21.4032 12.7738 22.3665 13.0524 23.2495 13.6281C23.7682 13.9686 24.2313 14.371 24.6142 14.86C25.3552 15.8072 25.7874 16.8844 25.7936 18.0544Z"/>
<path d="M24.1965 17.9426C24.1903 18.0479 24.2089 18.1841 24.178 18.3203C24.1348 18.5493 23.9742 18.6793 23.7334 18.6855C23.4802 18.6917 23.3197 18.5803 23.2641 18.3512C23.2394 18.2645 23.2394 18.1717 23.227 18.0788C23.1838 17.6641 23.085 17.2555 22.9245 16.8655C22.7021 16.3083 22.3008 15.9307 21.7512 15.6954C21.3683 15.5345 20.9731 15.4169 20.5656 15.3549C20.4544 15.3364 20.3495 15.3116 20.2507 15.2621C20.2013 15.2373 20.158 15.2064 20.1272 15.163C19.9913 14.9959 19.9975 14.8164 20.0716 14.6306C20.1333 14.4635 20.263 14.3706 20.4421 14.3521C20.5903 14.3335 20.7385 14.3583 20.8867 14.383C21.3004 14.4449 21.7018 14.5502 22.0846 14.7297C22.5725 14.9649 22.9924 15.293 23.3505 15.7016C23.6531 16.0545 23.8816 16.4445 24.0298 16.884C24.1348 17.2245 24.1903 17.565 24.1965 17.9426Z"/>
<path d="M22.6569 17.8239C22.6569 17.9477 22.6569 18.0715 22.6137 18.1891C22.5519 18.3687 22.4222 18.4739 22.237 18.4987C22.0455 18.5234 21.8912 18.4553 21.7862 18.2944C21.7306 18.2139 21.7059 18.1272 21.6936 18.0344C21.6689 17.8796 21.6503 17.7186 21.5886 17.5763C21.4589 17.2605 21.2119 17.0748 20.8908 16.9882C20.8291 16.9696 20.7611 16.9572 20.6994 16.9448C20.65 16.9324 20.5944 16.9201 20.545 16.9077C20.3165 16.8396 20.1992 16.6972 20.1992 16.4991C20.1992 16.2639 20.3289 16.0719 20.545 16.01C20.755 15.9481 20.9711 15.9605 21.181 16.0162C21.6812 16.1586 22.0517 16.4743 22.3419 16.8953C22.5334 17.1677 22.6569 17.4772 22.6569 17.8239Z" fill="#60B6D9"/>
</svg>
