<svg width="19" height="20" viewBox="0 0 19 20" xmlns="http://www.w3.org/2000/svg">
<path d="M4.39103 17.922C4.39674 17.3322 4.40817 16.7424 4.41388 16.1525C4.41388 16.0151 4.43101 16.0323 4.29964 15.975C3.56852 15.683 2.8888 15.3165 2.28906 14.8011C1.65504 14.2571 1.1581 13.6158 0.792542 12.8656C0.444117 12.1441 0.249912 11.3768 0.141386 10.5866C0.101403 10.2773 0.0785558 9.96811 0.0785558 9.65889C0.0785558 9.36684 0.0328606 9.0748 0.0271487 8.78276C0.0214368 8.57661 0.015725 8.36474 0.0214369 8.15859C0.0271488 7.73484 -0.0128346 7.31109 0.00430108 6.88734C0.0385724 5.92532 0.209929 4.9862 0.586914 4.09289C1.12383 2.82165 2.00346 1.85963 3.20296 1.18392C4.10544 0.680002 5.06503 0.359327 6.08175 0.193263C6.71006 0.0901896 7.33836 0.0329264 7.97238 0.0157474C8.72635 -0.00715796 9.48032 -0.00143154 10.24 0.0100211C11.211 0.0214738 12.1706 0.113095 13.1131 0.342148C14.0098 0.554023 14.8552 0.891876 15.632 1.39007C16.5745 1.99133 17.2942 2.78729 17.7797 3.80085C18.0824 4.42502 18.2652 5.08355 18.3852 5.76498C18.4708 6.2689 18.5051 6.77282 18.4994 7.28246C18.4937 7.82073 18.4823 8.35901 18.448 8.89156C18.4251 9.25804 18.4251 9.62453 18.408 9.99101C18.3452 11.0046 18.1395 11.9838 17.694 12.9C17.1457 14.0223 16.3174 14.8698 15.2322 15.4826C14.3354 15.9865 13.3758 16.3014 12.3705 16.4732C11.5823 16.6049 10.7826 16.6679 9.98297 16.6679C9.49174 16.6679 9.00052 16.6622 8.5093 16.6679C8.25798 16.6679 8.00665 16.6736 7.75533 16.645C7.67537 16.6393 7.61825 16.6622 7.56684 16.7252C7.17272 17.1833 6.7786 17.6414 6.37877 18.0995C5.88755 18.6664 5.39632 19.2333 4.91081 19.7945C4.85941 19.8518 4.80229 19.909 4.73946 19.9491C4.58524 20.0522 4.4253 19.9949 4.38532 19.8117C4.37389 19.7716 4.37961 19.72 4.37961 19.68C4.3739 19.0959 4.38532 18.5061 4.39103 17.922Z"/>
<path fill-rule="evenodd" clip-rule="evenodd" d="M14.6099 7.79609C14.6073 7.72959 14.6043 7.6571 14.6068 7.57485C14.6011 6.49257 14.2013 5.49619 13.5159 4.62006C13.1617 4.16768 12.7333 3.79547 12.2535 3.48052C11.4367 2.94798 10.5457 2.69029 9.56894 2.70747C9.3119 2.70747 9.12341 2.83918 9.10056 3.1713C9.08914 3.36027 9.18053 3.49198 9.3576 3.55497C9.41472 3.57787 9.47184 3.58933 9.53467 3.59505C9.7917 3.61796 10.0487 3.66377 10.3001 3.72103C10.8827 3.85274 11.4424 4.04171 11.9451 4.36811C12.3792 4.6487 12.7276 5.00373 12.9961 5.43893C13.3559 6.02302 13.5387 6.67009 13.6529 7.34007C13.6872 7.55766 13.7043 7.77525 13.7215 7.99284L13.7215 7.99287C13.7386 8.17039 13.7957 8.33073 13.9785 8.40517C14.2812 8.53115 14.5668 8.35936 14.6068 8.03296C14.6165 7.95858 14.6134 7.88238 14.6099 7.79609ZM4.52132 3.6406C3.94442 4.01854 3.62456 4.54536 3.60742 5.24397C3.60742 5.47875 3.65883 5.7937 3.74451 6.03993C3.96156 6.60684 4.21859 7.15657 4.5099 7.68912C4.96114 8.52516 5.49234 9.30394 6.10352 10.0255C6.92603 10.9932 7.86849 11.8178 8.92519 12.5221C9.62775 12.9917 10.3703 13.3983 11.1414 13.7418C11.176 13.7573 11.2105 13.7732 11.2453 13.7893C11.3653 13.8448 11.487 13.901 11.6155 13.9365C11.6361 13.9427 11.6567 13.9491 11.6774 13.9555C11.8283 14.0021 11.9802 14.049 12.141 14.0339C12.2838 14.0224 12.4209 13.9938 12.5579 13.948C13.0663 13.7819 13.4776 13.4727 13.8146 13.0604C14.0088 12.8256 14.1573 12.5679 14.2372 12.2702C14.3229 11.961 14.2829 11.6689 14.083 11.4055C13.9973 11.2967 13.906 11.1994 13.8031 11.1135C13.4147 10.7985 13.0149 10.495 12.6036 10.2087L12.5579 10.1768C12.3673 10.0437 12.175 9.90943 11.9582 9.81931C11.7126 9.71051 11.4556 9.6647 11.1871 9.72769C10.9415 9.78495 10.7473 9.92238 10.5759 10.1056C10.515 10.1705 10.4642 10.2405 10.4135 10.3105L10.4135 10.3105C10.3881 10.3455 10.3627 10.3805 10.336 10.4148C10.1475 10.6554 9.93048 10.7183 9.64489 10.6153C9.33644 10.5065 9.06227 10.3461 8.7881 10.1743C8.50251 9.99683 8.24547 9.79068 8.00557 9.5559C7.60003 9.15506 7.28588 8.69122 7.05169 8.17585C7.01171 8.07851 6.97172 7.97543 6.94888 7.86663C6.88604 7.60322 6.94316 7.37417 7.14308 7.1852C7.22876 7.10503 7.32015 7.03631 7.41154 6.97332C7.50864 6.89888 7.60003 6.81871 7.68 6.72709C7.89705 6.47513 7.9713 6.18882 7.8742 5.86242C7.83993 5.74789 7.79423 5.63909 7.74283 5.53602C7.42867 4.92902 7.04026 4.38502 6.58331 3.88111C6.44623 3.73222 6.30914 3.58334 6.1435 3.46308C5.89218 3.27411 5.60658 3.23403 5.30956 3.29702C5.02397 3.35428 4.76122 3.48026 4.52132 3.6406ZM13.1307 7.47152C13.1288 7.50351 13.1294 7.53859 13.13 7.57575C13.1313 7.65167 13.1327 7.73625 13.1135 7.82083C13.0736 8.0327 12.925 8.15295 12.7023 8.15868C12.4681 8.16441 12.3196 8.06133 12.2682 7.84946C12.2528 7.79562 12.2478 7.7392 12.2427 7.68193C12.2402 7.65392 12.2376 7.62571 12.2339 7.5975C12.1939 7.21384 12.1025 6.8359 11.954 6.47514C11.7484 5.95977 11.3771 5.61046 10.8687 5.39286C10.5146 5.24398 10.149 5.13518 9.77206 5.07791C9.66925 5.06074 9.57214 5.03783 9.48075 4.99202C9.43506 4.96911 9.39507 4.94048 9.36651 4.9004C9.24085 4.74579 9.24656 4.57972 9.31511 4.40793C9.37223 4.25332 9.49218 4.16743 9.65782 4.15025C9.79491 4.13307 9.93199 4.15598 10.0691 4.17888C10.4518 4.23614 10.8231 4.33349 11.1772 4.49956C11.6284 4.71716 12.0168 5.02065 12.3481 5.39859C12.628 5.72499 12.8394 6.08575 12.9764 6.49232C13.0735 6.80727 13.125 7.12221 13.1307 7.47152ZM11.6677 7.69952C11.7076 7.59072 11.7076 7.4762 11.7076 7.36167C11.7076 7.04099 11.5934 6.75468 11.4163 6.50272C11.1479 6.11333 10.8052 5.82129 10.3425 5.68958C10.1483 5.63804 9.94838 5.62659 9.75418 5.68385C9.55426 5.74112 9.43431 5.91863 9.43431 6.13623C9.43431 6.31948 9.54284 6.45118 9.75418 6.51417C9.77703 6.5199 9.8013 6.52562 9.82557 6.53135C9.84985 6.53708 9.87413 6.5428 9.89698 6.54853C9.90506 6.55015 9.91325 6.55177 9.92153 6.55341C9.97176 6.56334 10.025 6.57387 10.074 6.58861C10.3711 6.66878 10.5995 6.84057 10.7195 7.13262C10.769 7.24668 10.7884 7.37364 10.8076 7.4986C10.8106 7.51792 10.8135 7.53719 10.8166 7.55637C10.828 7.64226 10.8509 7.72243 10.9023 7.79687C10.9994 7.94576 11.1422 8.00875 11.3192 7.98584C11.4906 7.96293 11.6105 7.86559 11.6677 7.69952Z" fill="#35464B"/>
</svg>
